<?xml version="1.0" encoding="UTF-8" standalone="no"?>
<!DOCTYPE svg PUBLIC "-//W3C//DTD SVG 1.1//EN" "http://www.w3.org/Graphics/SVG/1.1/DTD/svg11.dtd">
<svg width="100%" height="100%" viewBox="0 0 256 256" version="1.1" xmlns="http://www.w3.org/2000/svg" xmlns:xlink="http://www.w3.org/1999/xlink" xml:space="preserve" xmlns:serif="http://www.serif.com/" style="fill-rule:evenodd;clip-rule:evenodd;stroke-linecap:round;stroke-linejoin:bevel;">
    <g transform="matrix(1,0,0,1,-160,-124)">
        <path d="M282.254,147.134L195.254,194.589C191.399,196.692 189,200.732 189,205.124L189,298.876C189,303.268 191.399,307.308 195.254,309.411L282.254,356.866C285.836,358.819 290.164,358.819 293.746,356.866L380.746,309.411C384.601,307.308 387,303.268 387,298.876L387,205.124C387,200.732 384.601,196.692 380.746,194.589L293.746,147.134C290.164,145.181 285.836,145.181 282.254,147.134Z" style="fill:none;fill-rule:nonzero;stroke:rgb(0,68,121);stroke-width:12px;"/>
        <path d="M288,252L216,216" style="fill:none;fill-rule:nonzero;stroke:rgb(0,68,121);stroke-width:8px;stroke-linejoin:round;"/>
        <path d="M216,288L288,252" style="fill:none;fill-rule:nonzero;stroke:rgb(0,68,121);stroke-width:8px;stroke-linejoin:round;"/>
        <path d="M360,288L288,252" style="fill:none;fill-rule:nonzero;stroke:rgb(0,68,121);stroke-width:8px;stroke-linejoin:round;"/>
        <path d="M360,216L288,252" style="fill:none;fill-rule:nonzero;stroke:rgb(0,68,121);stroke-width:8px;stroke-linejoin:round;"/>
    </g>
</svg>
